<?xml version="1.0" standalone="no"?>
<!DOCTYPE svg PUBLIC "-//W3C//DTD SVG 20010904//EN"
 "http://www.w3.org/TR/2001/REC-SVG-20010904/DTD/svg10.dtd">
<svg version="1.0" xmlns="http://www.w3.org/2000/svg"
 width="64.000000pt" height="64.000000pt" viewBox="0 0 64.000000 64.000000"
 preserveAspectRatio="xMidYMid meet">

<g transform="translate(0.000000,64.000000) scale(0.100000,-0.100000)"
fill="#000000" stroke="none">
<path d="M304 584 c-41 -20 -64 -63 -64 -118 0 -50 21 -112 45 -130 7 -6 15
-24 17 -41 4 -38 -34 -55 -81 -35 -34 14 -39 33 -16 56 24 24 19 90 -7 108
-30 21 -54 20 -78 -4 -24 -24 -26 -68 -5 -96 23 -30 18 -50 -16 -64 -40 -17
-59 -37 -59 -61 0 -14 11 -22 45 -30 44 -11 45 -12 39 -43 -7 -43 7 -53 97
-72 86 -18 260 -14 323 8 52 18 61 33 46 87 -11 41 -14 44 -97 82 -81 38 -85
41 -78 67 3 15 13 32 20 38 41 31 58 149 30 203 -15 31 -69 61 -107 61 -12 0
-37 -7 -54 -16z"/>
</g>
</svg>
