<?xml version="1.0" standalone="no"?>
<!DOCTYPE svg PUBLIC "-//W3C//DTD SVG 20010904//EN"
 "http://www.w3.org/TR/2001/REC-SVG-20010904/DTD/svg10.dtd">
<svg version="1.0" xmlns="http://www.w3.org/2000/svg"
 width="64.000000pt" height="64.000000pt" viewBox="0 0 64.000000 64.000000"
 preserveAspectRatio="xMidYMid meet">

<g transform="translate(0.000000,64.000000) scale(0.100000,-0.100000)"
fill="#000000" stroke="none">
<path d="M265 593 c-44 -12 -104 -64 -125 -109 -18 -37 -22 -56 -17 -101 5
-49 17 -72 98 -194 50 -77 95 -139 99 -139 4 0 49 64 101 142 l94 141 0 66 c0
79 -23 124 -86 165 -41 28 -120 42 -164 29z m139 -112 c26 -27 31 -39 31 -81
0 -43 -5 -54 -33 -82 -47 -48 -117 -48 -164 0 -28 28 -33 39 -33 81 0 52 25
92 70 112 37 16 96 3 129 -30z"/>
</g>
</svg>
