<?xml version="1.0" standalone="no"?>
<!DOCTYPE svg PUBLIC "-//W3C//DTD SVG 20010904//EN"
 "http://www.w3.org/TR/2001/REC-SVG-20010904/DTD/svg10.dtd">
<svg version="1.0" xmlns="http://www.w3.org/2000/svg"
 width="64.000000pt" height="64.000000pt" viewBox="0 0 64.000000 64.000000"
 preserveAspectRatio="xMidYMid meet">

<g transform="translate(0.000000,64.000000) scale(0.100000,-0.100000)"
fill="#000000" stroke="none">
<path d="M85 587 c-3 -7 -4 -131 -3 -277 l3 -265 235 0 235 0 3 220 2 219 -57
58 -57 58 -179 0 c-134 0 -179 -3 -182 -13z m315 -87 c0 -19 -7 -20 -120 -20
-113 0 -120 1 -120 20 0 19 7 20 120 20 113 0 120 -1 120 -20z m-40 -120 c0
-19 -7 -20 -100 -20 -93 0 -100 1 -100 20 0 19 7 20 100 20 93 0 100 -1 100
-20z m120 -120 c0 -19 -7 -20 -160 -20 -153 0 -160 1 -160 20 0 19 7 20 160
20 153 0 160 -1 160 -20z m-160 -120 c0 -18 -7 -20 -80 -20 -73 0 -80 2 -80
20 0 18 7 20 80 20 73 0 80 -2 80 -20z"/>
</g>
</svg>
